PathFileType	4	(X/Y/Z)	OpenSim_Sub07_CSBaseline_Gyro.trc
DataRate	CameraRate	NumFrames	NumMarkers	Units	OrigDataRate	OrigDataStartFrame	OrigNumFrames
100	100	33	8	m	100	4868	7788
Frame#	Time	torso_imu_offset_imu	pelvis_imu_offset_imu	tibia_r_imu_offset_imu	femur_r_imu_offset_imu	tibia_l_imu_offset_imu	femur_l_imu_offset_imu	toes_r_imu_offset_imu	toes_l_imu_offset_imu
				X1	Y1	Z1	X2	Y2	Z2	X3	Y3	Z3	X4	Y4	Z4	X5	Y5	Z5	X6	Y6	Z6	X7	Y7	Z7	X8		Y8	Z8	

4868	48.67000000	-0.22545797	0.20655615	0.05055112	0.10488401	0.30055515	-0.16459096	-0.07236141	-0.12711857	-0.18518077	-0.24474915	0.34447732	-0.95875193	-0.62030425	-1.87422896	-4.03449187	-0.93969415	0.04770155	-0.48159130	-0.02151593	0.00297982	0.00940007	0.44822976	3.33148202	-2.62141768
4869	48.68000000	-0.18457357	0.21487485	0.05447977	0.11582529	0.27600928	-0.13596808	-0.02151978	-0.14888702	-0.19358520	-0.13036700	0.34124213	-0.95474793	-0.43892815	-1.84979182	-3.97915601	-0.74212749	0.01142421	-0.43388183	-0.03518585	0.00398236	0.02756015	0.62226349	3.56349384	-2.36050801
4870	48.69000000	-0.14180635	0.21676355	0.06058855	0.11339929	0.24713688	-0.14493846	-0.03021181	-0.15906615	-0.20746887	-0.06867525	0.33810989	-0.93851468	-0.26833409	-1.49920401	-3.89045536	-0.45957608	-0.02363708	-0.33076506	-0.04946110	-0.00655616	0.03414842	0.82058196	3.69082061	-2.00367296
4871	48.70000000	-0.10349717	0.21638970	0.06546808	0.12876023	0.22036202	-0.13444249	-0.08560490	-0.14798250	-0.20925392	-0.01549025	0.33208048	-0.92976994	0.10055687	-1.25488582	-3.95278552	-0.26805071	-0.00331002	-0.23987293	-0.04360002	-0.01171497	0.02775682	1.07593447	3.65679374	-1.59858852
4872	48.71000000	-0.07259401	0.20675047	0.06226458	0.15126908	0.20036451	-0.12957279	-0.14630298	-0.13061353	-0.22376185	0.05751546	0.34074681	-0.94472006	0.49217697	-1.24213582	-4.06438394	0.03605869	-0.02586010	-0.19666281	-0.04530661	-0.00176636	0.01116631	1.45342455	3.59877941	-1.25038091
4873	48.72000000	-0.04490322	0.19488041	0.05429065	0.17267746	0.18806252	-0.11743544	-0.18884732	-0.14021936	-0.23192292	0.09338911	0.34593102	-0.97103868	1.02518334	-1.34031700	-4.16937801	0.33896438	-0.03145797	-0.09639012	-0.03963895	-0.00490733	-0.01487703	1.66325263	3.57078638	-1.05034027
4874	48.73000000	-0.03244302	0.18547251	0.05293539	0.18737362	0.18642353	-0.10302447	-0.21270586	-0.17897932	-0.21935196	0.06660722	0.34470802	-0.99036233	1.32353712	-1.40622885	-4.14313457	0.55114418	0.00717906	0.00640645	-0.05039830	-0.01642974	-0.02798339	1.55088625	3.59502812	-1.03355112
4875	48.74000000	-0.01702537	0.17324800	0.05226362	0.19531279	0.18807404	-0.09760088	-0.19283370	-0.19085738	-0.24382375	-0.00054177	0.34727938	-1.00777976	1.10335455	-1.39188787	-4.02468611	0.72756084	0.06742573	0.05103400	-0.04913821	-0.00423289	-0.03141602	1.25312708	3.68407645	-1.22101904
4876	48.75000000	-0.00113371	0.16283941	0.06025293	0.19538422	0.18607936	-0.09509899	-0.14494741	-0.17957693	-0.29144467	-0.06802322	0.34843354	-1.04142679	0.49715041	-1.36314760	-3.82925985	0.84129113	0.14827123	0.11885410	-0.04078955	-0.00630089	-0.03608851	0.83642829	3.64575629	-1.56701056
4877	48.76000000	0.00250020	0.14765552	0.06831571	0.17864672	0.17939946	-0.08875154	-0.09683635	-0.18177955	-0.34842046	-0.12071009	0.34577159	-1.08237350	-0.25104951	-1.28490023	-3.69613872	0.93651345	0.20500117	0.11981597	-0.05084570	-0.03049884	-0.03150590	0.42665466	3.49950336	-1.99367064
4878	48.77000000	0.00389685	0.12904406	0.07627558	0.14521041	0.15367652	-0.08923714	-0.08479875	-0.20493690	-0.40333081	-0.15557582	0.34816728	-1.11239448	-0.76153958	-1.18549453	-3.57895082	1.15832359	0.18680270	0.08336146	-0.05474298	-0.04886529	-0.02246573	-0.00760196	3.37635555	-2.41127547
4879	48.78000000	-0.00636955	0.11375567	0.07784190	0.07693728	0.11419976	-0.08724525	-0.08735497	-0.24909302	-0.47126673	-0.18227987	0.34604999	-1.13493510	-1.18786809	-1.04169034	-3.34639193	1.23679543	0.07974758	0.05995845	-0.06094838	-0.04051725	-0.01026445	-0.44142092	3.27094729	-2.73596247
4880	48.79000000	-0.01720004	0.10009268	0.07712691	-0.01191450	0.07085350	-0.09632474	-0.09382328	-0.30418921	-0.54571174	-0.19706007	0.33172426	-1.12205488	-1.74965251	-0.85866008	-3.20158112	1.03989265	-0.04225895	0.07277533	-0.07369993	-0.06206663	-0.00096361	-0.73666280	3.07566522	-2.91992426
4881	48.80000000	-0.02825418	0.09056322	0.06821063	-0.09965130	0.01864981	-0.10720092	-0.09326446	-0.35610810	-0.62748413	-0.19932845	0.30332535	-1.07916783	-2.40506982	-0.68373582	-3.12119169	0.71984379	-0.11913952	0.06647110	-0.07027975	-0.07152559	-0.00157814	-1.08037384	2.81792602	-2.99678299
4882	48.81000000	-0.04018237	0.08009295	0.05920415	-0.17677438	-0.03168013	-0.11946327	-0.08350250	-0.39149363	-0.70582000	-0.14435259	0.28287829	-1.00284255	-2.70057726	-0.59578952	-2.94765793	0.38217577	-0.27632519	0.07044564	-0.07476369	-0.07270509	-0.00831836	-1.21886828	2.55993496	-2.94865491
4883	48.82000000	-0.04594939	0.06590515	0.04488581	-0.24517019	-0.07879860	-0.14045587	-0.12153977	-0.41888653	-0.77524441	-0.08628970	0.23542071	-0.87803005	-2.49930944	-0.51392783	-2.69536937	0.04178774	-0.55291848	0.09992419	-0.07944426	-0.07320131	-0.02623418	-0.49398507	2.39365794	-2.62801945
4884	48.83000000	-0.04173998	0.06033063	0.02433119	-0.29981224	-0.12575758	-0.15221780	-0.19183536	-0.45142277	-0.86070335	-0.09243888	0.14665743	-0.72341440	-1.85920527	-0.35156693	-2.40775492	-0.20823305	-0.84460153	0.15997986	-0.06845519	-0.08786160	-0.04050186	-0.51976460	2.33347526	-2.08509487
4885	48.84000000	-0.03334637	0.05093485	0.00644899	-0.34804238	-0.16823464	-0.14958197	-0.29838940	-0.48172263	-0.96987824	-0.11703722	0.06222987	-0.56170979	-0.94642533	-0.14440203	-2.10032491	-0.30068670	-1.02287117	0.17818216	-0.05031751	-0.09583876	-0.06000396	-0.88078457	2.26567344	-1.52913378
4886	48.85000000	-0.00759992	0.02736973	-0.00959395	-0.40462533	-0.19339474	-0.14683688	-0.44846378	-0.52266354	-1.05866441	-0.08438202	0.03088352	-0.44350339	-0.14409519	-0.06482564	-1.72703302	-0.29292527	-1.09345398	0.20111623	-0.04746770	-0.13859650	-0.06835416	-0.88971301	2.14923716	-1.11103640
4887	48.86000000	0.01599320	-0.00004223	-0.01315228	-0.44448099	-0.20289070	-0.11902629	-0.52061692	-0.54904159	-1.12558386	-0.02937470	0.03178197	-0.37263388	0.47391139	-0.08247048	-1.38122785	-0.35344438	-1.05560193	0.32357554	-0.00663004	-0.18222356	-0.05351877	-0.78261823	1.91334964	-0.84773166
4888	48.87000000	0.04361792	-0.03979953	-0.01185623	-0.44768904	-0.20179406	-0.13655984	-0.51860029	-0.54700946	-1.20502475	-0.04432579	0.05592762	-0.34459651	0.65466388	-0.12735576	-1.09613853	-0.45988600	-0.90912267	0.43985702	-0.00499338	-0.21875083	0.01817570	-0.68060098	1.57106577	-0.69874126
4889	48.88000000	0.07777920	-0.08597746	-0.01835879	-0.39093122	-0.18754065	-0.11191729	-0.44217016	-0.54443810	-1.29176209	-0.15183450	0.07498250	-0.33685283	0.35882036	-0.08395869	-0.79761569	-0.35304517	-0.80026253	0.55327464	-0.18581784	-0.34340942	0.13304327	-0.62387260	1.16432086	-0.65920833
4890	48.89000000	0.11571643	-0.14064537	-0.01701879	-0.36352925	-0.13665933	-0.09075761	-0.33002645	-0.57271310	-1.37616706	-0.32606032	0.11674082	-0.29745073	-0.12733443	-0.06302990	-0.55875251	-0.40062299	-0.66364610	0.62630098	-0.18674977	-0.45064532	0.15166915	-0.32798311	0.70918884	-0.69913033
4891	48.90000000	0.16617779	-0.19303770	-0.01300871	-0.33890243	-0.09786889	-0.11519835	-0.31726038	-0.61120472	-1.43410350	-0.55653893	0.17136671	-0.24171078	-0.70353855	-0.13845074	-0.36472964	-0.39394896	-0.55988846	0.69783548	-0.24941110	-0.55818027	0.21655450	-0.08334453	-0.49919401	-0.55397459
4892	48.91000000	0.22365190	-0.25379506	-0.01332710	-0.26047086	-0.10820634	-0.10371095	-0.22266057	-0.64224731	-1.51287831	-0.79303837	0.20855613	-0.18462486	-1.47056931	-0.21742627	-0.16396033	-0.27133374	-0.47530432	0.70063953	-0.30138348	-0.64641745	0.29031310	-1.49760193	-2.60977686	-0.09712696
4893	48.92000000	0.27254147	-0.30716994	-0.01219235	-0.19257593	-0.12045557	-0.12047111	-0.15303435	-0.66385705	-1.59871319	-0.96626656	0.17629937	-0.12465901	-2.13155779	-0.10709442	0.24237903	-0.34127482	-0.40005926	0.57525401	-0.35871510	-0.79870781	0.34273239	-1.40066372	-3.31188059	0.04740092
4894	48.93000000	0.30909678	-0.32635743	-0.01297983	-0.17327093	-0.13360480	-0.09563221	-0.24847586	-0.71672716	-1.70138935	-1.02473505	0.10196166	-0.07372941	-1.87351003	-0.05707917	0.90585600	-0.49220583	-0.47547538	0.40584779	-0.38474422	-0.91016722	0.35718050	0.46345523	-2.41351783	-0.02574508
4895	48.94000000	0.33242543	-0.32393704	-0.01313012	-0.19092996	-0.15501435	-0.07386357	-0.44500346	-0.82561332	-1.81333688	-0.96254095	0.02965751	-0.02820091	-1.35942425	-0.23177066	1.32252874	-0.31564758	-0.82677869	0.15704400	-0.42433872	-1.04189323	0.40041009	-1.57934297	-1.96811163	0.29915703
4896	48.95000000	0.33241408	-0.32183533	-0.00462290	-0.17998535	-0.18099688	-0.07370760	-0.51581072	-0.93858106	-1.90688468	-0.86811448	-0.01300881	0.03592846	-1.10926356	-0.48854310	1.16609929	-0.05007264	-1.02510361	0.09542232	-0.50349272	-1.21415946	0.48488973	-1.51782988	-2.28905565	0.76167091
4897	48.96000000	0.30787048	-0.32208464	-0.00148317	-0.16543919	-0.20570625	-0.07243724	-0.55368658	-1.03434004	-1.99705642	-0.72684545	-0.01673517	0.13097688	-0.08805025	-0.67894202	0.85173681	0.00765587	-0.67514912	0.07851578	-0.53480069	-1.43495945	0.52320694	0.55218096	-2.73504478	0.76613959
4898	48.97000000	0.28402948	-0.28850368	-0.00495151	-0.19496760	-0.22663422	-0.04433995	-0.67074952	-1.12442493	-2.11670074	-0.46717781	-0.01764002	0.25189897	1.61634655	-0.41178282	0.76135074	0.09469956	-0.03546723	0.04687573	-0.56673689	-1.71970332	0.52606454	0.82438331	-2.60997046	0.43874642
4899	48.98000000	0.27364604	-0.21746908	-0.01166778	-0.29126739	-0.24357781	-0.01929341	-0.78240520	-1.22055931	-2.20535844	-0.18211895	-0.03705715	0.38776792	2.15103054	0.19311989	0.76623032	0.48061103	0.30751232	0.10372143	-0.54903605	-2.00056630	0.50718696	0.08393754	-1.87423368	0.33177036
4900	48.99000000	0.27507443	-0.14428015	0.00150966	-0.38081644	-0.23991721	-0.03144278	-0.71962945	-1.29568481	-2.26583541	-0.00524129	-0.08547189	0.55671721	1.13111381	0.40292314	0.85179473	0.77851198	0.02532253	0.18656541	-0.39441842	-2.30372491	0.45141748	-0.41290039	-1.00897487	0.34530449
